<mxfile host="app.diagrams.net" modified="2024-02-11T18:51:18.712Z" agent="Mozilla/5.0 (iPad; CPU OS 17_4 like Mac OS X) AppleWebKit/605.1.15 (KHTML, like Gecko) CriOS/121.0.6167.138 Mobile/15E148 Safari/604.1" version="23.1.2" etag="ANNTPKwdyWeseo6BwX5T" type="github">
  <diagram name="第 1 页" id="kyE1wKe5aGJnBgQAoiOP">
    <mxGraphModel>
      <root>
        <mxCell id="0" />
        <mxCell id="1" parent="0" />
      </root>
    </mxGraphModel>
  </diagram>
</mxfile>
